<svg xmlns="http://www.w3.org/2000/svg" viewBox="0 0 400 400" width="400" height="400">
  <defs>
    <!-- Common Gradients & Filters -->
    <linearGradient id="bgGradDark" x1="0%" y1="0%" x2="100%" y2="100%">
      <stop offset="0%" stop-color="#0F172A" />
      <stop offset="100%" stop-color="#1E293B" />
    </linearGradient>
    <linearGradient id="bgGradOrange" x1="0%" y1="0%" x2="100%" y2="100%">
      <stop offset="0%" stop-color="#FF5722" />
      <stop offset="100%" stop-color="#E64A19" />
    </linearGradient>
    <linearGradient id="bgGradYellow" x1="0%" y1="0%" x2="100%" y2="100%">
      <stop offset="0%" stop-color="#FFC107" />
      <stop offset="100%" stop-color="#FFA000" />
    </linearGradient>
    <linearGradient id="bgGradBlue" x1="0%" y1="0%" x2="100%" y2="100%">
      <stop offset="0%" stop-color="#1E88E5" />
      <stop offset="100%" stop-color="#1565C0" />
    </linearGradient>
    <linearGradient id="goldGrad" x1="0%" y1="0%" x2="100%" y2="100%">
      <stop offset="0%" stop-color="#FFD700" />
      <stop offset="100%" stop-color="#FF8C00" />
    </linearGradient>
    <linearGradient id="ironRed" x1="0%" y1="0%" x2="100%" y2="100%">
      <stop offset="0%" stop-color="#D32F2F" />
      <stop offset="100%" stop-color="#8E0000" />
    </linearGradient>
    <linearGradient id="silverGrad" x1="0%" y1="0%" x2="100%" y2="100%">
      <stop offset="0%" stop-color="#E0E0E0" />
      <stop offset="100%" stop-color="#9E9E9E" />
    </linearGradient>
    <radialGradient id="cyanGlow" cx="50%" cy="50%" r="50%">
      <stop offset="0%" stop-color="#00E5FF" stop-opacity="0.8" />
      <stop offset="100%" stop-color="#00E5FF" stop-opacity="0" />
    </radialGradient>
    <radialGradient id="purpleGlow" cx="50%" cy="50%" r="50%">
      <stop offset="0%" stop-color="#D500F9" stop-opacity="0.8" />
      <stop offset="100%" stop-color="#D500F9" stop-opacity="0" />
    </radialGradient>
    <filter id="dropShadow" x="-20%" y="-20%" width="140%" height="140%">
      <feDropShadow dx="0" dy="8" stdDeviation="6" flood-color="#000" flood-opacity="0.3" />
    </filter>
  </defs>

  
  <!-- Background Badge -->
  <rect width="400" height="400" rx="40" fill="url(#bgGradDark)" />
  <circle cx="200" cy="200" r="170" fill="#1E293B" stroke="#00E5FF" stroke-width="4" stroke-dasharray="10 6" />
  
  <!-- Holographic Grid Lines -->
  <path d="M 50 200 H 350 M 200 50 V 350" stroke="#00E5FF" stroke-opacity="0.2" stroke-width="2" />
  <circle cx="200" cy="200" r="130" fill="none" stroke="#00E5FF" stroke-opacity="0.15" stroke-width="2" />

  <g filter="url(#dropShadow)">
    <!-- Body / Suit -->
    <path d="M 120 380 Q 200 310 280 380 L 310 400 H 90 Z" fill="#091428" stroke="#1A1D1D" stroke-width="4" />
    <!-- Armor Collars & Glow Core -->
    <path d="M 150 340 L 200 380 L 250 340 L 230 400 H 170 Z" fill="#1E293B" stroke="#00E5FF" stroke-width="3" />
    <circle cx="200" cy="370" r="12" fill="#00E5FF" />
    <circle cx="200" cy="370" r="6" fill="#FFFFFF" />

    <!-- Cat Head & Ears (Adult Male Cool Cat) -->
    <!-- Left Ear -->
    <path d="M 120 170 L 90 60 L 165 125 Z" fill="#334155" stroke="#1A1D1D" stroke-width="5" stroke-linejoin="round" />
    <path d="M 125 155 L 105 85 L 155 125 Z" fill="#FF7676" opacity="0.8" />
    <!-- Right Ear -->
    <path d="M 280 170 L 310 60 L 235 125 Z" fill="#334155" stroke="#1A1D1D" stroke-width="5" stroke-linejoin="round" />
    <path d="M 275 155 L 295 85 L 245 125 Z" fill="#FF7676" opacity="0.8" />

    <!-- Head Base (Sleek Grey/Slate Adult Cat) -->
    <ellipse cx="200" cy="200" rx="90" ry="80" fill="#475569" stroke="#1A1D1D" stroke-width="5" />
    <!-- Cheeks Tuft -->
    <path d="M 110 210 Q 90 230 115 250 Q 140 260 170 265" fill="#475569" stroke="#1A1D1D" stroke-width="4" />
    <path d="M 290 210 Q 310 230 285 250 Q 260 260 230 265" fill="#475569" stroke="#1A1D1D" stroke-width="4" />

    <!-- Muzzle / Nose / Mouth -->
    <ellipse cx="200" cy="235" rx="35" ry="25" fill="#F8FAFC" stroke="#1A1D1D" stroke-width="3" />
    <polygon points="200,222 190,212 210,212" fill="#E11D48" stroke="#1A1D1D" stroke-width="2" />
    <path d="M 190 232 Q 200 242 210 232" fill="none" stroke="#1A1D1D" stroke-width="4" stroke-linecap="round" />

    <!-- Whiskers -->
    <path d="M 140 230 L 70 215 M 135 240 L 65 240 M 140 250 L 75 260" stroke="#FFFFFF" stroke-width="3.5" stroke-linecap="round" />
    <path d="M 260 230 L 330 215 M 265 240 L 335 240 M 260 250 L 325 260" stroke="#FFFFFF" stroke-width="3.5" stroke-linecap="round" />

    <!-- Cyber AI Visor (Glove / Futuristic Goggles) -->
    <path d="M 125 165 Q 200 150 275 165 Q 285 205 270 215 Q 200 225 130 215 Q 115 205 125 165 Z" fill="#00E5FF" opacity="0.85" stroke="#1A1D1D" stroke-width="4" />
    <!-- Visor Glow lines & Tech UI -->
    <path d="M 140 180 H 260 M 150 195 H 220" stroke="#FFFFFF" stroke-width="3" stroke-linecap="round" opacity="0.9" />
    <circle cx="160" cy="180" r="4" fill="#FFFFFF" />
    <circle cx="240" cy="180" r="4" fill="#FFFFFF" />
  </g>

  <!-- Floating Hologram AI Code Nodes -->
  <g opacity="0.8">
    <rect x="50" y="80" width="70" height="35" rx="8" fill="#0F172A" stroke="#00E5FF" stroke-width="2" />
    <text x="60" y="102" fill="#00E5FF" font-family="monospace" font-size="12" font-weight="bold">&lt;AI/&gt;</text>
    
    <rect x="280" y="90" width="80" height="35" rx="8" fill="#0F172A" stroke="#00E5FF" stroke-width="2" />
    <text x="290" y="112" fill="#00E5FF" font-family="monospace" font-size="11" font-weight="bold">RAG 99.9%</text>
  </g>

</svg>